<?xml version="1.0" ?><svg data-name="Layer 1" id="Layer_1" viewBox="0 0 512 512" xmlns="http://www.w3.org/2000/svg"><title/><path d="M256,123.88a128.4,128.4,0,0,0-67.06,238v52.93a5.9,5.9,0,0,0,5.9,5.9H317.16a5.9,5.9,0,0,0,5.9-5.9V361.83A128.4,128.4,0,0,0,256,123.88Zm51.15,133a5.89,5.89,0,0,0-8.31-.76,311,311,0,0,0-36.94,37.56v-5.28c0-25.49,14.17-41.43,26.05-50.3a24.41,24.41,0,0,1,14.79-5.21,25.55,25.55,0,0,1,16.63,6.5c6.94,6.14,12.44,17.87,5.08,30.77-12.82,22.46-32.49,35-58.58,37.53,17.68-23.32,40.27-42.3,40.53-42.51A5.89,5.89,0,0,0,307.15,256.91Zm-57,36.8a310.52,310.52,0,0,0-36.93-37.56,5.9,5.9,0,0,0-7.55,9.06c.25.21,22.82,19.16,40.51,42.51-26.08-2.49-45.76-15.07-58.58-37.53-7.36-12.9-1.86-24.63,5.08-30.77a25.55,25.55,0,0,1,16.63-6.5,24.41,24.41,0,0,1,14.79,5.21c11.88,8.87,26,24.81,26,50.3Zm64.11,59.66a5.91,5.91,0,0,0-2.95,5.11v50.38H261.9v-89c32.23-1.62,57.32-16.68,72.78-43.8,10.18-17.81,3.56-35.65-7.49-45.45s-29.79-14.22-46.3-1.9c-11.42,8.54-19.79,18.88-24.89,30.62-5.1-11.74-13.47-22.08-24.89-30.62-16.57-12.32-35.15-7.93-46.3,1.9s-17.67,27.64-7.49,45.45c15.46,27.12,40.55,42.18,72.78,43.8v89H200.74V358.48a5.88,5.88,0,0,0-3-5.1,116.7,116.7,0,1,1,116.42,0Z"/><path d="M317.16,443H194.84a5.9,5.9,0,1,0,0,11.79H317.16a5.9,5.9,0,1,0,0-11.79Z"/><path d="M317.16,477.13H194.84a5.9,5.9,0,1,0,0,11.79H317.16a5.9,5.9,0,1,0,0-11.79Z"/><path d="M379.81,132.31a5.94,5.94,0,0,0,4.18-1.73l32.89-32.91a5.9,5.9,0,0,0-8.36-8.32l-32.89,32.91a5.9,5.9,0,0,0,4.18,10Z"/><path d="M477.85,244l-46.52,0a5.9,5.9,0,1,0,0,11.79l46.52,0a5.9,5.9,0,1,0,0-11.79Z"/><path d="M384.59,369.58a5.9,5.9,0,0,0-8.33,8.36l32.89,32.87a5.9,5.9,0,0,0,8.33-8.35Z"/><path d="M256,81.39a5.9,5.9,0,0,0,5.9-5.89V29a5.9,5.9,0,0,0-11.8,0V75.5A5.9,5.9,0,0,0,256,81.39Z"/><path d="M128,130.58a5.9,5.9,0,0,0,8.36-8.32L103.48,89.35a5.9,5.9,0,0,0-8.36,8.32Z"/><path d="M80.67,244.07l-46.52,0a5.9,5.9,0,1,0,0,11.79l46.52,0a5.9,5.9,0,1,0,0-11.79Z"/><path d="M127.43,369.58,94.52,402.46a5.9,5.9,0,0,0,8.33,8.35l32.9-32.87a5.9,5.9,0,1,0-8.32-8.36Z"/></svg>